External Loads File
version=1
nRows=54
nColumns=13
Range=5.000000e-03-10 seconds
endheader
time 	forceRightX 	forceRightY 	forceRightZ 	pointRightX 	pointRightY 	pointRightZ 	forceLeftX 	forceLeftY 	forceLeftZ 	pointLeftX 	pointLeftY 	pointLeftZ 		
5.005000 135.269216 169.599931 -0.000000 0.271586 0.149839 -0.096456 -60.305803 24.384050 -0.000000 0.236230 0.492661 -0.340956
5.010000 145.437424 129.862535 -0.000000 0.260927 0.149376 -0.096599 -62.667785 38.221893 -0.000000 0.245194 0.494886 -0.341250
5.015000 155.352854 95.438179 -0.000000 0.250204 0.149507 -0.096701 -65.017272 52.756846 -0.000000 0.254012 0.496345 -0.341674
5.020000 163.931108 65.778169 -0.000000 0.239646 0.150422 -0.096912 -67.504699 67.942275 -0.000000 0.262649 0.497096 -0.342121
5.025000 170.084602 40.416780 -0.000000 0.229435 0.151781 -0.097156 -70.336534 83.739354 -0.000000 0.271012 0.497067 -0.343056
5.030000 173.040557 18.935847 -0.000000 0.219805 0.153469 -0.097430 -73.810301 100.190577 -0.000000 0.279008 0.496389 -0.342997
5.035000 172.581018 0.519146 -0.000000 0.210533 0.155625 -0.097552 -78.164963 117.640646 -0.000000 0.286630 0.495074 -0.343319
5.040000 168.945206 -15.765614 -0.000000 0.201578 0.158392 -0.097659 -83.690789 136.694343 -0.000000 0.293914 0.492770 -0.343615
5.045000 162.708078 -30.710614 -0.000000 0.192873 0.161769 -0.097659 -90.714281 158.147876 -0.000000 0.300890 0.489785 -0.343806
5.050000 154.616370 -44.729641 -0.000000 0.184399 0.165897 -0.097470 -99.555241 182.799707 -0.000000 0.307523 0.486429 -0.344069
5.055000 145.375632 -57.899356 -0.000000 0.175865 0.170667 -0.097783 -110.306133 211.323951 -0.000000 0.313912 0.483011 -0.344268
5.060000 135.587970 -69.787689 -0.000000 0.167679 0.175989 -0.097636 -122.998566 243.980818 -0.000000 0.319980 0.478288 -0.344622
5.065000 125.835332 -79.612272 -0.000000 0.159895 0.181756 -0.097629 -137.766612 280.469032 -0.000000 0.325656 0.472697 -0.344743
5.070000 116.508375 -86.902043 -0.000000 0.152439 0.188048 -0.097696 -154.059761 320.360572 -0.000000 0.331242 0.466040 -0.345103
5.075000 108.217900 -91.061115 -0.000000 0.145309 0.194649 -0.097751 -172.137483 362.500411 -0.000000 0.336553 0.458850 -0.345386
5.080000 101.299997 -92.164282 -0.000000 0.138643 0.201820 -0.097803 -191.435127 405.947045 -0.000000 0.341852 0.451110 -0.345443
5.085000 95.971966 -90.553589 -0.000000 0.132324 0.209516 -0.097722 -211.184780 449.663288 -0.000000 0.347064 0.442766 -0.345473
5.090000 92.358059 -86.630101 -0.000000 0.126392 0.217588 -0.097660 -230.881907 492.314140 -0.000000 0.352075 0.434026 -0.345567
5.095000 90.384485 -80.851806 -0.000000 0.121061 0.226160 -0.097592 -250.065305 532.645333 -0.000000 0.356796 0.425111 -0.345355
5.100000 89.759845 -73.789711 -0.000000 0.116276 0.235023 -0.097574 -267.714181 570.039266 -0.000000 0.361284 0.415697 -0.345099
5.105000 90.317286 -65.832086 -0.000000 0.112022 0.244086 -0.097469 -284.087577 603.698842 -0.000000 0.365342 0.406076 -0.344860
5.110000 91.675912 -57.660407 -0.000000 0.108462 0.253575 -0.097544 -297.948058 633.926890 -0.000000 0.369059 0.395882 -0.344398
5.115000 93.748434 -49.513362 -0.000000 0.105144 0.263270 -0.097495 -311.342146 659.820330 -0.000000 0.372490 0.386337 -0.344120
5.120000 96.031123 -42.235536 -0.000000 0.102658 0.273120 -0.097463 -321.889866 682.791642 -0.000000 0.375520 0.375815 -0.343830
5.125000 98.260209 -36.207148 -0.000000 0.100756 0.283601 -0.097449 -329.770979 703.203527 -0.000000 0.378200 0.365170 -0.343642
5.130000 100.213599 -31.455920 -0.000000 0.099464 0.293685 -0.097518 -336.889159 720.685457 -0.000000 0.380455 0.354296 -0.343327
5.135000 101.482652 -28.317703 -0.000000 0.098749 0.304217 -0.097577 -341.979178 736.300464 -0.000000 0.382394 0.343670 -0.342888
5.140000 101.755693 -26.729214 -0.000000 0.098747 0.314601 -0.097610 -345.626474 750.107650 -0.000000 0.383848 0.333098 -0.342689
5.145000 100.610491 -27.034353 -0.000000 0.099306 0.325277 -0.097821 -344.444213 763.835401 -0.000000 0.384676 0.322023 -0.342671
5.150000 97.892589 -28.711617 -0.000000 0.100366 0.335930 -0.098044 -340.628190 776.468005 -0.000000 0.385101 0.311219 -0.342937
5.155000 93.357391 -31.791103 -0.000000 0.102099 0.346669 -0.098313 -331.620288 788.955229 -0.000000 0.384825 0.300088 -0.342548
5.160000 86.988023 -35.723974 -0.000000 0.104395 0.357433 -0.098585 -319.001898 800.255147 -0.000000 0.384076 0.289268 -0.342518
5.165000 78.824771 -40.072924 -0.000000 0.106429 0.368068 -0.099738 -303.278603 809.685057 -0.000000 0.382828 0.278642 -0.342388
5.170000 68.886267 -44.637960 -0.000000 0.110809 0.378558 -0.099015 -282.149698 817.422492 -0.000000 0.380959 0.268272 -0.342290
5.175000 57.568230 -48.802334 -0.000000 0.114127 0.388866 -0.100187 -258.135626 821.726776 -0.000000 0.378501 0.257939 -0.342171
5.180000 45.111551 -52.485780 -0.000000 0.119389 0.398911 -0.099624 -228.917631 822.456690 -0.000000 0.375469 0.247915 -0.342031
5.185000 32.079575 -55.445936 -0.000000 0.124567 0.408748 -0.099928 -196.894516 818.002736 -0.000000 0.371971 0.238046 -0.341905
5.190000 18.871773 -57.778678 -0.000000 0.130306 0.418353 -0.100188 -161.996817 807.688031 -0.000000 0.367875 0.228428 -0.341789
5.195000 5.972644 -59.608285 -0.000000 0.136420 0.427599 -0.100433 -126.189879 790.636610 -0.000000 0.363266 0.219274 -0.341724
5.200000 -6.235934 -61.146669 -0.000000 0.142895 0.436416 -0.100809 -90.795351 766.600061 -0.000000 0.358125 0.210729 -0.341733
5.205000 -17.395567 -62.623100 -0.000000 0.149003 0.444787 -0.102034 -57.607175 735.848351 -0.000000 0.352541 0.202390 -0.341749
5.210000 -27.699399 -64.071158 -0.000000 0.157247 0.452934 -0.101335 -23.047439 699.532528 -0.000000 0.346493 0.194321 -0.341834
5.215000 -36.573638 -65.753337 -0.000000 0.164946 0.460433 -0.101799 6.304085 658.679875 -0.000000 0.340006 0.186683 -0.341923
5.220000 -44.230860 -67.673010 -0.000000 0.172853 0.467125 -0.102211 31.679281 615.415040 -0.000000 0.333005 0.179215 -0.342029
5.225000 -50.848877 -69.747439 -0.000000 0.180980 0.473500 -0.102306 52.755340 572.045154 -0.000000 0.325524 0.172868 -0.342139
5.230000 -56.793716 -71.625433 -0.000000 0.189278 0.479263 -0.102773 70.440133 530.805977 -0.000000 0.317564 0.167091 -0.342218
5.235000 -62.522721 -72.679091 -0.000000 0.198003 0.484470 -0.102972 86.294038 493.467495 -0.000000 0.308990 0.162108 -0.342206
5.240000 -68.345593 -72.176696 -0.000000 0.207004 0.489116 -0.103147 101.352662 461.207301 -0.000000 0.299871 0.157685 -0.342221
5.245000 -74.383959 -69.348055 -0.000000 0.216184 0.493205 -0.103261 116.490803 434.408800 -0.000000 0.290255 0.154082 -0.342247
5.250000 -80.542449 -63.495266 -0.000000 0.225519 0.496487 -0.103395 132.331266 412.567391 -0.000000 0.280332 0.151162 -0.342125
5.255000 -86.562275 -54.080258 -0.000000 0.234890 0.499042 -0.103620 149.228963 394.298845 -0.000000 0.270053 0.149074 -0.341914
5.260000 -92.081443 -40.742989 -0.000000 0.244719 0.500780 -0.103816 167.327673 377.456818 -0.000000 0.259579 0.147618 -0.341722
5.265000 -96.484385 -23.772409 -0.000000 0.254230 0.502070 -0.104044 184.793058 360.268174 -0.000000 0.249123 0.146891 -0.341458
5.270000 -99.351976 -3.580806 -0.000000 0.263487 0.502838 -0.104231 200.323353 340.801498 -0.000000 0.238849 0.146765 -0.341208
